inDegrees=no
num_controls=7
num_derivatives=13
num_iterations=113
num_multipliers=7
num_parameters=0
num_slacks=7
num_states=26
objective=5.865624
objective_accelerations=0.870008
objective_balance=0.064940
objective_effort=0.338582
objective_height=4.501573
objective_ligament=0.090521
solver_duration=1261.241261
status=Solve_Succeeded
success=true
DataType=double
version=3
OpenSimVersion=4.4-2022-07-23-0e9fedc
endheader
time	/jointset/ground_pelvis/pelvis_tilt/value	/jointset/ground_pelvis/pelvis_tx/value	/jointset/ground_pelvis/pelvis_ty/value	/jointset/hip_l/hip_flexion_l/value	/jointset/hip_l/hip_adduction_l/value	/jointset/hip_l/hip_rotation_l/value	/jointset/back/lumbar_extension/value	/jointset/patellofemoral_l/patellar_flexion_l/value	/jointset/knee_l/knee_flexion_l/value	/jointset/knee_l/knee_adduction_l/value	/jointset/knee_l/knee_rotation_l/value	/jointset/ankle_l/ankle_angle_l/value	/jointset/subtalar_l/subtalar_angle_l/value	/jointset/ground_pelvis/pelvis_tilt/speed	/jointset/ground_pelvis/pelvis_tx/speed	/jointset/ground_pelvis/pelvis_ty/speed	/jointset/hip_l/hip_flexion_l/speed	/jointset/hip_l/hip_adduction_l/speed	/jointset/hip_l/hip_rotation_l/speed	/jointset/back/lumbar_extension/speed	/jointset/patellofemoral_l/patellar_flexion_l/speed	/jointset/knee_l/knee_flexion_l/speed	/jointset/knee_l/knee_adduction_l/speed	/jointset/knee_l/knee_rotation_l/speed	/jointset/ankle_l/ankle_angle_l/speed	/jointset/subtalar_l/subtalar_angle_l/speed	/forceset/tau_hip_flexion_l	/forceset/tau_hip_adduction_l	/forceset/tau_hip_rotation_l	/forceset/tau_knee_flexion_l	/forceset/tau_ankle_angle_l	/forceset/tau_subtalar_angle_l	/forceset/tau_lumbar_extension	lambda_cid13_p0	lambda_cid13_p1	lambda_cid13_p2	lambda_cid13_p3	lambda_cid13_p4	lambda_cid13_p5	lambda_cid14_p0	/jointset/ground_pelvis/pelvis_tilt/accel	/jointset/ground_pelvis/pelvis_tx/accel	/jointset/ground_pelvis/pelvis_ty/accel	/jointset/hip_l/hip_flexion_l/accel	/jointset/hip_l/hip_adduction_l/accel	/jointset/hip_l/hip_rotation_l/accel	/jointset/back/lumbar_extension/accel	/jointset/patellofemoral_l/patellar_flexion_l/accel	/jointset/knee_l/knee_flexion_l/accel	/jointset/knee_l/knee_adduction_l/accel	/jointset/knee_l/knee_rotation_l/accel	/jointset/ankle_l/ankle_angle_l/accel	/jointset/subtalar_l/subtalar_angle_l/accel	gamma_cid13_p0	gamma_cid13_p1	gamma_cid13_p2	gamma_cid13_p3	gamma_cid13_p4	gamma_cid13_p5	gamma_cid14_p0
0	-0.04017034000251723	0.0691990510629867	0.8959768370087544	0.1955292361009247	-0.3217341209266724	-0.488827723918585	-0.137903700187828	0.07015350928390292	0.07015350928391206	-0.1745329233734697	-0.1230226459265927	-0.06701017130107029	0.00417442762150179	0	0	0	0	0	0	0	0	0	0	0	0	0	0.1194977381980369	-0.09243495438907733	-0.0318957092667187	-0.2382033797855345	0.1901954248327045	-0.02821206468297412	-0.06474281915180898	24.72127455801099	4.132027747109707	3.336650113998148	8.841869168339905	-512.6322130988392	-72.70292415533407	-40.05348621065978	-5.823391866097956	-2.414560568286475	-1.135390502182904	14.97711181006043	-2.188160754159501	3.593053482783988	-3.092250430682114	10.60580404986374	10.60580404986303	0.7645025174469698	-0.8565133907296208	1.673568228327124	-1.493762644149549	-2.377722509443892e-08	1.693792337571154e-07	1.353185208538798e-07	1.120716990350649e-08	1.265686561061933e-08	-1.530987125461328e-08	-4.000488389164273e-09
0.01	-0.04044952912012181	0.06908003722274532	0.8959216736665311	0.1962546205725354	-0.3218418236830784	-0.488647885161162	-0.1380648616080519	0.07066852462557753	0.07066852462543015	-0.1744985155167279	-0.1230594395450958	-0.06693091873153351	0.004099163428198021	-0.05558176490158257	-0.02367921869438734	-0.01099565981582748	0.1444023085720058	-0.02142114691005687	0.0357738624332756	-0.03191724991654245	0.1025256138350238	0.1025256138350214	0.006871981615355918	-0.007345595678957132	0.01579230934464087	-0.01495386614993222	0.1145302356956145	-0.09636658642362086	-0.03099256805191904	-0.2326526750606913	0.1806190741807467	-0.02043500200715154	-0.06042847585659755	21.9226112491403	1.372050227913068	3.630943857052015	9.207405879018133	-513.5346407704532	-78.52629256646715	-40.06392782376813	-5.387174699673914	-2.326067875204883	-1.076099895577224	14.07058785068448	-2.101218788681335	3.540455533706263	-3.194207152846306	10.00432267807199	10.00432267807219	0.6471502278992564	-0.6716019348979968	1.523335171851648	-1.481395181587673	-6.313874857530431e-08	1.774975532926732e-07	2.13179540719308e-07	4.49561855836498e-08	-2.496381520047174e-07	-6.320362730041803e-08	-1.165758429804094e-08
0.02	-0.0412768570662435	0.06872793812452256	0.89575766449129	0.1984037876238842	-0.3221601633344414	-0.4881161271974102	-0.1385357445035825	0.07219447263096854	0.07219447263097022	-0.1743956669952195	-0.1231692929764156	-0.06669548849168762	0.003877321257160319	-0.1096277657025874	-0.0466170515962784	-0.02176916660351836	0.2847565159405774	-0.04212737899022793	0.07038384127080517	-0.0619442950613322	0.2021865327800552	0.2021865327800581	0.01368813300348692	-0.01461196249466347	0.0312355340620426	-0.02931559554676883	0.1095627331936481	-0.1002982184581142	-0.03008942683511591	-0.2271019703359269	0.1710427235288651	-0.01265793933125523	-0.05611413256111248	19.19123447619538	-1.400633877387379	3.928321540966559	9.446000477321469	-513.4272290361106	-84.17934445903833	-40.09465051626182	-5.516239045982505	-2.266283409787112	-1.090959896555582	14.16749156937355	-2.045177788182341	3.360276763634781	-2.714209476331546	10.03286507186522	10.03286507186604	0.7533364720019339	-0.8406676180794332	1.603751302879399	-1.375335293530384	-1.025002720561697e-07	1.856158728282311e-07	2.910405605847363e-07	7.870520126379312e-08	-5.119331696200542e-07	-1.110973833462228e-07	-1.931468020691762e-08
0.03	-0.04263762260000054	0.06815010032757769	0.8954866409626181	0.201937749351021	-0.3226818952297033	-0.4872436195285149	-0.1392971188601886	0.07470358038316409	0.07470358038323441	-0.1742245843820998	-0.1233512478644679	-0.06630708686741751	0.003515064332674608	-0.1622547984789895	-0.06883010472017767	-0.03242669251481926	0.4213762394706427	-0.06209367471100343	0.1039998969378638	-0.09006556050032691	0.2991733838467868	0.2991733838468024	0.02051623088392963	-0.02169521685029519	0.04639000688597517	-0.04303049454115492	0.1042807277708223	-0.09462721801088768	-0.02925635429223838	-0.222122000070421	0.1668887249808252	-0.01381764400372295	-0.05172271569480004	17.88005952267899	-0.7925693885745203	3.974356043129073	9.651338104629895	-513.0224323881829	-81.9735559539179	-40.14439622367956	-5.095365891824966	-2.180739925095437	-1.051925392417179	13.31025418787779	-1.953602247333082	3.344561406020473	-2.821332713666675	9.462353945088244	9.462353945089701	0.645784803001494	-0.6295479133275979	1.463078255687423	-1.353835122073589	-1.319254246301696e-07	2.169822741970612e-07	3.475149127453824e-07	1.081049838335805e-07	-6.949959375025581e-07	-1.420617333922024e-07	-2.202376430921711e-08
0.04	-0.04451654456119528	0.06735374726711361	0.8951092868840328	0.206818116602047	-0.323399539438829	-0.4860384930153761	-0.1403317553983849	0.07816870841028864	0.07816870841029076	-0.1739855731186799	-0.1236015140097638	-0.06576878391819999	0.003018804834308825	-0.2132590511896109	-0.09032010430011814	-0.04303527658619474	0.5540376207229286	-0.08130984176408643	0.1369076101160887	-0.1165967313786592	0.3933905877539563	0.3933905877539772	0.02727386304180509	-0.02827421396683447	0.06121579905139336	-0.05611611032277631	0.09899872234767043	-0.08895621756368387	-0.02842328175010241	-0.2171420298050174	0.1627347264326949	-0.0149773486762558	-0.04733129882866158	16.63017979764573	-0.1942016479868524	4.02075450375729	9.738399565340121	-511.7090600590811	-79.60629800122022	-40.21152605921689	-5.191683032826463	-2.121672700995239	-1.081171528570495	13.37582311381763	-1.895152054643867	3.218608265868056	-2.396190564199045	9.478935639952782	9.478935639952111	0.7392433274884254	-0.7398161702609167	1.538015171176636	-1.249478650977395	-1.611457035772239e-07	2.488280174593609e-07	4.035483026853114e-07	1.37415091493876e-07	-8.764250507513955e-07	-1.726770235206599e-07	-2.463082754952533e-08
